<svg xmlns="http://www.w3.org/2000/svg" >
  <symbol id="arrow-left" viewBox="0 0 24 24"><path d="M10 22.03c-.77 0-1.51-.3-2.09-.88l-6.73-6.33c-1.57-1.57-1.57-4.09-.02-5.64l.02-.02 6.75-6.35c.84-.85 2.09-1.1 3.22-.63S12.99 3.7 13 4.92v2.06h7.03c2.19 0 3.97 1.8 3.97 4.01v1.98c0 2.21-1.78 4.01-3.97 4.01H13v2.06c0 1.23-.71 2.28-1.85 2.75-.38.16-.77.23-1.15.23Z"/></symbol>
  <symbol id="plus" viewBox="0 0 24 24"><path d="M14 7V.46a6.977 6.977 0 0 1 2.465 1.59l3.484 3.486A6.954 6.954 0 0 1 21.54 8H15a1 1 0 0 1-1-1zm8 3.485V19a5.006 5.006 0 0 1-5 5H7a5.006 5.006 0 0 1-5-5V5a5.006 5.006 0 0 1 5-5h4.515c.163 0 .324.013.485.024V7a3 3 0 0 0 3 3h6.976c.011.161.024.322.024.485zM16 17a1 1 0 0 0-1-1h-2v-2a1 1 0 0 0-2 0v2H9a1 1 0 0 0 0 2h2v2a1 1 0 0 0 2 0v-2h2a1 1 0 0 0 1-1z"/></symbol>
  <symbol id="work" viewBox="0 0 24 24"><path d="M12 18v-1.5c0-1.379 1.121-2.5 2.5-2.5h.5v-.5c0-.827.673-1.5 1.5-1.5h3c.827 0 1.5.673 1.5 1.5v.5h.5c1.379 0 2.5 1.121 2.5 2.5V18H12Zm7 2v1h-2v-1h-5v4h12v-4h-5Zm-9 4H0V3c0-1.654 1.346-3 3-3h10c1.654 0 3 1.346 3 3v7.038a3.508 3.508 0 0 0-2.739 2.136A4.507 4.507 0 0 0 10 16.5V24ZM9 7h3V5H9v2Zm0 4h3V9H9v2Zm-2 6H4v2h3v-2Zm0-4H4v2h3v-2Zm0-4H4v2h3V9Zm0-4H4v2h3V5Z"/></symbol>
  <symbol id="family" viewBox="0 0 24 24"><path d="M12 5a2.5 2.5 0 1 1 0 5 2.5 2.5 0 0 1 0-5Zm4 9v3c0 .883-.391 1.67-1 2.22V23a1 1 0 1 1-2 0v-3h-2v3a1 1 0 1 1-2 0v-3.78A2.983 2.983 0 0 1 8 17v-3c0-1.654 1.346-3 3-3h2c1.654 0 3 1.346 3 3ZM5 5a2.5 2.5 0 1 0 0-5 2.5 2.5 0 0 0 0 5Zm2.5 2.5c0-.392.066-.765.161-1.128A3.965 3.965 0 0 0 6 6H4c-2.206 0-4 1.794-4 4v3c0 1.474.81 2.75 2 3.444V23a1 1 0 1 0 2 0v-6h2v-3c0-1.716.87-3.231 2.19-4.132A4.461 4.461 0 0 1 7.5 7.5ZM19 5a2.5 2.5 0 1 0 0-5 2.5 2.5 0 0 0 0 5Zm4.977 11.628-.876-7.007A4.138 4.138 0 0 0 19 6c-.964 0-1.851.344-2.56.908.026.196.06.389.06.592 0 .871-.26 1.679-.69 2.368A4.998 4.998 0 0 1 18 14v3a4.979 4.979 0 0 1-1 2.981V20h3v3a1 1 0 1 0 2 0v-3.188a2.99 2.99 0 0 0 1.249-.826 3.004 3.004 0 0 0 .728-2.357Z"/></symbol>
  <symbol id="hobby" viewBox="0 0 24 24"><path d="M16 8a7.965 7.965 0 0 0-4.546 1.434c.178.386.376.778.585 1.181A13.58 13.58 0 0 1 14 17a12.788 12.788 0 0 1-1.507 6.2A8 8 0 1 0 16 8zm1 8a1 1 0 1 1 1-1 1 1 0 0 1-1 1zm2-3a1 1 0 1 1 1-1 1 1 0 0 1-1 1zm2 3a1 1 0 1 1 1-1 1 1 0 0 1-1 1zm-10.736-4.463A11.781 11.781 0 0 1 12 17a9.732 9.732 0 0 1-2.293 6.707L9.414 24H2.586l-.293-.293A9.732 9.732 0 0 1 0 17a11.781 11.781 0 0 1 1.736-5.463A24.85 24.85 0 0 0 2.489 10h7.022c.217.5.48 1.012.753 1.537zM2.446 5.825A7.168 7.168 0 0 1 2 4a4 4 0 0 1 8 0 7.168 7.168 0 0 1-.446 1.825A11.618 11.618 0 0 0 9 8H3a11.618 11.618 0 0 0-.554-2.175z"/></symbol>
  <symbol id="star" viewBox="0 0 24 24"><path d="m1.327 12.4 3.56 2.6-1.352 4.187A3.178 3.178 0 0 0 4.719 22.8a3.177 3.177 0 0 0 3.8-.019L12 20.219l3.482 2.559a3.227 3.227 0 0 0 4.983-3.591L19.113 15l3.56-2.6a3.227 3.227 0 0 0-1.9-5.832H16.4l-1.327-4.136a3.227 3.227 0 0 0-6.146 0L7.6 6.568H3.231a3.227 3.227 0 0 0-1.9 5.832Z"/></symbol>
  <symbol id="remove" viewBox="0 0 24 24" fill="#e53935"><path d="M16 8a1 1 0 0 0-1.414 0L12 10.586 9.414 8A1 1 0 0 0 8 9.414L10.586 12 8 14.586A1 1 0 0 0 9.414 16L12 13.414 14.586 16A1 1 0 0 0 16 14.586L13.414 12 16 9.414A1 1 0 0 0 16 8Z"/><path d="M12 0a12 12 0 1 0 12 12A12.013 12.013 0 0 0 12 0Zm0 22a10 10 0 1 1 10-10 10.011 10.011 0 0 1-10 10Z"/></symbol>
</svg>
